<svg width="32" height="32" viewBox="0 0 32 32" fill="none" xmlns="http://www.w3.org/2000/svg">
<path fill-rule="evenodd" clip-rule="evenodd" d="M2.84468 13.8076C2.09002 13.3903 1.66602 12.6596 1.66602 11.8956C1.66602 11.1303 2.09002 10.3996 2.84468 9.9836L13.93 3.85694C15.1887 3.16227 16.81 3.16227 18.0687 3.85694L29.154 9.9836C29.9087 10.3996 30.3327 11.1303 30.3327 11.8956C30.3327 12.6596 29.9087 13.3903 29.154 13.8076L18.0687 19.9329C16.81 20.6289 15.1887 20.6289 13.93 19.9329L2.84468 13.8076ZM3.81135 12.0569L14.8967 18.1823C15.5673 18.5529 16.4313 18.5529 17.102 18.1823L28.1873 12.0569C28.2607 12.0169 28.3327 11.9689 28.3327 11.8956C28.3327 11.8209 28.2607 11.7743 28.1873 11.7329L17.102 5.6076C16.4313 5.23694 15.5673 5.23694 14.8967 5.6076L3.81135 11.7329C3.73802 11.7743 3.66602 11.8209 3.66602 11.8956C3.66602 11.9689 3.73802 12.0169 3.81135 12.0569Z" fill="#ED3C4E"/>
<path fill-rule="evenodd" clip-rule="evenodd" d="M24.3327 15C24.3327 14.448 24.7807 14 25.3327 14C25.8847 14 26.3327 14.448 26.3327 15V21C26.3327 23.7613 24.094 26 21.3327 26H10.666C7.90468 26 5.66602 23.7613 5.66602 21V15C5.66602 14.448 6.11402 14 6.66602 14C7.21802 14 7.66602 14.448 7.66602 15V21C7.66602 22.6573 9.00868 24 10.666 24H21.3327C22.99 24 24.3327 22.6573 24.3327 21V15Z" fill="#ED3C4E"/>
<path fill-rule="evenodd" clip-rule="evenodd" d="M15.293 13.0393C14.9023 12.65 14.9023 12.0153 15.293 11.626C15.6823 11.2353 16.317 11.2353 16.7063 11.626L21.373 16.2927C21.561 16.4793 21.6663 16.734 21.6663 16.9993V27.666C21.6663 28.218 21.2183 28.666 20.6663 28.666C20.1143 28.666 19.6663 28.218 19.6663 27.666V17.414L15.293 13.0393Z" fill="#ED3C4E"/>
</svg>
