<svg width="37" height="37" viewBox="0 0 37 37" fill="none" xmlns="http://www.w3.org/2000/svg">
<g clip-path="url(#clip0_3028_4118)">
<path d="M8.50619 22.1005L7.26957 26.717L2.74975 26.8126C1.39899 24.3073 0.632812 21.4408 0.632812 18.3947C0.632812 15.4491 1.34917 12.6714 2.61896 10.2256H2.61993L6.64384 10.9633L8.40655 14.9631C8.03762 16.0386 7.83654 17.1933 7.83654 18.3947C7.83668 19.6986 8.07287 20.9479 8.50619 22.1005Z" fill="#FBBB00"/>
<path d="M35.8474 15.0771C36.0514 16.1517 36.1578 17.2614 36.1578 18.3955C36.1578 19.6673 36.0241 20.9078 35.7694 22.1044C34.9047 26.1762 32.6452 29.7318 29.5152 32.2479L29.5142 32.2469L24.4459 31.9883L23.7286 27.5104C25.8055 26.2924 27.4286 24.3862 28.2836 22.1044H18.7852V15.0771H28.4222H35.8474Z" fill="#518EF8"/>
<path d="M29.5118 32.247L29.5128 32.248C26.4687 34.6948 22.6018 36.1588 18.3923 36.1588C11.6277 36.1588 5.74633 32.3778 2.74609 26.8137L8.50254 22.1016C10.0026 26.1051 13.8647 28.955 18.3923 28.955C20.3384 28.955 22.1616 28.4289 23.7261 27.5105L29.5118 32.247Z" fill="#28B446"/>
<path d="M29.7324 4.72125L23.9779 9.43237C22.3587 8.42029 20.4447 7.83563 18.3942 7.83563C13.7641 7.83563 9.82979 10.8163 8.40486 14.9634L2.61816 10.2259H2.61719C5.5735 4.52606 11.529 0.631836 18.3942 0.631836C22.7042 0.631836 26.656 2.1671 29.7324 4.72125Z" fill="#F14336"/>
</g>
<defs>
<clipPath id="clip0_3028_4118">
<rect width="35.5263" height="35.5263" fill="white" transform="translate(0.632812 0.631836)"/>
</clipPath>
</defs>
</svg>
