<svg width="32" height="32" viewBox="0 0 32 32" fill="none" xmlns="http://www.w3.org/2000/svg">
<g clip-path="url(#clip0_3028_6616)">
<path d="M25.8784 9.35471L20.5953 8.58702L18.2326 3.79977C17.3201 1.95059 14.6813 1.95115 13.769 3.79971L11.4063 8.58696L6.12327 9.35471C4.08246 9.65121 3.26784 12.1609 4.74396 13.5999L8.56684 17.3263L7.6644 22.5878C7.31584 24.6204 9.45077 26.1706 11.2756 25.2116L16.0009 22.7272L20.7263 25.2116C22.5485 26.1695 24.686 24.6201 24.3375 22.5878L23.435 17.3262L27.258 13.5998C28.7343 12.1603 27.9183 9.65115 25.8784 9.35471ZM25.7687 12.0723L21.5442 16.19C21.2928 16.4351 21.1781 16.7881 21.2375 17.1341L22.2347 22.9486C22.2848 23.2406 21.981 23.4611 21.7188 23.3234L16.4971 20.5782C16.1865 20.4149 15.8151 20.4149 15.5045 20.5782L10.2828 23.3234C10.0205 23.4612 9.71684 23.2405 9.7669 22.9486L10.7641 17.1341C10.8235 16.7881 10.7088 16.4351 10.4574 16.19L6.23296 12.0723C6.02077 11.8655 6.13684 11.5085 6.43002 11.4658L12.268 10.6175C12.6154 10.567 12.9158 10.3488 13.0711 10.034L15.682 4.74384C15.8131 4.47834 16.1885 4.47815 16.3196 4.7439L18.9305 10.034C19.0859 10.3488 19.3863 10.567 19.7337 10.6175L25.5716 11.4658C25.8648 11.5085 25.9808 11.8655 25.7687 12.0723Z" fill="#ED3D4E"/>
<path d="M8.42016 2.94749L7.14447 1.19168C6.7981 0.715176 6.1311 0.609426 5.6546 0.955801C5.17804 1.30205 5.07235 1.96911 5.41866 2.44568L6.69435 4.20143C7.04085 4.67818 7.70785 4.78349 8.18422 4.4373C8.66078 4.09111 8.76647 3.42405 8.42016 2.94749Z" fill="#ED3D4E"/>
<path d="M4.18735 18.6817C4.00542 18.1215 3.40367 17.8147 2.84329 17.9969L0.737292 18.6812C0.177042 18.8633 -0.129521 19.465 0.0524791 20.0253C0.234792 20.5865 0.837542 20.892 1.39654 20.7101L3.50254 20.0258C4.06285 19.8437 4.36942 19.242 4.18735 18.6817Z" fill="#ED3D4E"/>
<path d="M26.3444 0.955764C25.8679 0.609514 25.2008 0.715077 24.8545 1.19164L23.5788 2.94739C23.2325 3.42395 23.3382 4.09108 23.8148 4.43726C24.2915 4.78364 24.9585 4.67776 25.3046 4.20139L26.5803 2.44564C26.9266 1.96908 26.8209 1.30195 26.3444 0.955764Z" fill="#ED3D4E"/>
<path d="M31.2623 18.6813L29.1563 17.997C28.5961 17.8146 27.9943 18.1215 27.8123 18.6818C27.6302 19.242 27.9368 19.8438 28.4971 20.0258L30.6031 20.7101C31.1621 20.892 31.7648 20.5865 31.9471 20.0253C32.1292 19.4651 31.8226 18.8633 31.2623 18.6813Z" fill="#ED3D4E"/>
<path d="M16.0002 26.9502C15.4112 26.9502 14.9336 27.4278 14.9336 28.0168V30.1817C14.9336 30.7708 15.4112 31.2483 16.0002 31.2483C16.5893 31.2483 17.0668 30.7708 17.0668 30.1817V28.0168C17.0669 27.4277 16.5893 26.9502 16.0002 26.9502Z" fill="#ED3D4E"/>
</g>
<defs>
<clipPath id="clip0_3028_6616">
<rect width="32" height="32" fill="white"/>
</clipPath>
</defs>
</svg>
