<svg width="45" height="47" viewBox="0 0 45 47" fill="none" xmlns="http://www.w3.org/2000/svg">
<path d="M44.4525 0.349443H18.699C18.699 0.349443 1.97831 -0.171515 0.609694 16.5756C0.551241 17.2433 0.565056 17.9153 0.6509 18.58C1.79289 27.0713 9.23345 34.7944 9.23345 34.7944H21.8895L13.8897 26.6357C13.8897 26.6357 3.81196 17.7265 12.3474 10.3565C12.3474 10.3565 14.287 8.80543 18.2339 8.57292H36.3085C36.3085 8.57292 36.232 16.7964 29.5596 18.271H19.6291L29.2506 27.9661C29.2506 27.9661 35.5315 34.0939 30.6457 40.9164C27.5435 44.6396 21.7247 44.4836 21.7247 44.4836C21.7247 44.4836 31.2667 49.6814 38.1716 42.7C43.8403 36.9666 39.4254 28.4311 39.4254 28.4311C38.6999 26.8789 37.7759 25.4275 36.6764 24.1133C36.6764 24.1133 44.9617 19.6984 44.5497 7.04242C44.5879 4.8909 44.4525 0.349443 44.4525 0.349443Z" fill="url(#paint0_linear_1111_2471)"/>
<path d="M21.882 34.7942H9.226C9.226 34.7942 4.79934 30.188 2.25047 24.1808C1.70891 20.0602 2.03267 14.9861 5.60579 11.4012C5.60579 11.4012 9.13771 7.57493 17.7703 8.55798L18.0293 8.58447C14.2031 8.85819 12.337 10.3504 12.337 10.3504C3.81335 17.7262 13.8911 26.6355 13.8911 26.6355L21.882 34.7942Z" fill="url(#paint1_linear_1111_2471)"/>
<path d="M35.2214 44.933C28.8345 48.3648 21.7266 44.4945 21.7266 44.4945C21.7266 44.4945 27.5424 44.6475 30.6476 40.9243C34.3532 35.75 31.6395 30.979 30.109 28.9688L30.162 29.007C30.162 29.007 37.0933 33.2394 37.9763 38.9611C38.3913 41.6483 36.9108 43.5997 35.2214 44.933Z" fill="url(#paint2_linear_1111_2471)"/>
<defs>
<linearGradient id="paint0_linear_1111_2471" x1="56.3168" y1="-7.93584" x2="20.5503" y2="25.2023" gradientUnits="userSpaceOnUse">
<stop stop-color="#7D61A9"/>
<stop offset="1" stop-color="#EE5969"/>
</linearGradient>
<linearGradient id="paint1_linear_1111_2471" x1="26.2587" y1="38.9707" x2="8.39012" y2="14.7859" gradientUnits="userSpaceOnUse">
<stop stop-color="#753C96"/>
<stop offset="1" stop-color="#58499D"/>
</linearGradient>
<linearGradient id="paint2_linear_1111_2471" x1="29.4467" y1="43.8146" x2="34.8565" y2="29.9283" gradientUnits="userSpaceOnUse">
<stop stop-color="#753C96"/>
<stop offset="1" stop-color="#58499D"/>
</linearGradient>
</defs>
</svg>
