<svg width="224" height="43" viewBox="0 0 224 43" fill="none" xmlns="http://www.w3.org/2000/svg">
<path d="M63.2323 34.299C60.8126 34.299 58.9112 33.6407 57.528 32.3242C56.1449 31.0077 55.4533 29.188 55.4533 26.865V25.0852C55.4363 24.6126 55.6071 24.1525 55.9282 23.8054C56.1038 23.6324 56.3139 23.4984 56.5447 23.4123C56.7756 23.3261 57.0221 23.2897 57.2681 23.3054H58.048C58.6812 23.3054 59.142 23.4987 59.4303 23.8854C59.7011 24.2284 59.8521 24.6507 59.8602 25.0877V26.79C59.8602 29.1646 60.9842 30.352 63.2323 30.352H68.8515C71.0995 30.352 72.2227 29.1646 72.221 26.79V24.6228C72.221 22.868 70.6379 21.629 67.4717 20.9058C66.3185 20.6975 65.0512 20.4392 63.6697 20.1309C62.3275 19.8395 61.0214 19.4011 59.7752 18.8235C58.6178 18.2952 57.575 17.5453 56.7056 16.6163C55.8724 15.7148 55.4558 14.5408 55.4558 13.0943V10.4497C55.4558 8.22998 56.1474 6.43605 57.5305 5.06791C58.9137 3.69976 60.8151 3.01485 63.2348 3.01318H68.854C71.2703 3.01318 73.1567 3.69809 74.5132 5.06791C75.8697 6.43772 76.5471 8.23164 76.5455 10.4497V11.6995C76.5357 12.1511 76.3845 12.5883 76.113 12.9493C75.8231 13.3626 75.3623 13.5693 74.7307 13.5693H74.1258C72.856 13.5693 72.2219 12.9493 72.2235 11.7095V10.4597C72.2235 8.13499 71.1004 6.96848 68.854 6.96015H63.2323C60.9842 6.96015 59.8602 8.12666 59.8602 10.4597V13.0043C59.8602 13.5718 60.1777 14.1667 60.8126 14.7841C61.4475 15.4015 62.6848 15.8964 64.5296 16.2564C65.8511 16.5147 67.1476 16.7872 68.4191 17.0738C69.7257 17.3719 70.9994 17.7998 72.221 18.3511C73.399 18.8971 74.4458 19.6899 75.2906 20.6758C76.1238 21.6557 76.5405 22.9205 76.5405 24.4703V26.87C76.5405 29.203 75.863 31.0227 74.5082 32.3292C73.1534 33.6357 71.267 34.294 68.849 34.304L63.2323 34.299Z" fill="white"/>
<path d="M98.3158 34.2992C97.221 34.2992 96.6735 33.7576 96.6735 32.6744V17.6514C96.6735 15.5351 95.6653 14.476 93.6489 14.4744H90.5369C88.2888 14.4744 87.1656 15.4817 87.1673 17.4965V32.6744C87.1673 33.7568 86.6174 34.2992 85.525 34.2992H84.9201C84.6795 34.3185 84.4379 34.2753 84.2189 34.1736C83.9999 34.072 83.8109 33.9155 83.6703 33.7193C83.4425 33.4159 83.3079 33.0529 83.2828 32.6744V4.57571C83.2946 4.18233 83.4302 3.80268 83.6703 3.49085C83.9303 3.1309 84.3469 2.95093 84.9201 2.95093H85.525C86.6174 2.95093 87.1673 3.49085 87.1673 4.57571V11.4548C88.2399 11.0315 89.3838 10.8177 90.5369 10.8249H93.6489C95.7786 10.8249 97.4784 11.4189 98.7483 12.6071C100.018 13.7953 100.651 15.4734 100.648 17.6414V32.6644C100.648 33.7476 100.072 34.2892 98.9207 34.2892L98.3158 34.2992Z" fill="white"/>
<path d="M114.208 22.4785V23.6558C114.208 23.9719 114.334 24.2747 114.558 24.4982C114.781 24.7217 115.084 24.8475 115.4 24.8482H123.454C124.029 24.8482 124.454 24.6707 124.704 24.3057C124.948 23.9972 125.085 23.6171 125.094 23.2234V18.1916C125.094 16.1768 124.491 14.5696 123.284 13.3522C122.077 12.1349 120.339 11.5325 118.097 11.5325H114.378C112.188 11.5325 110.478 12.1424 109.233 13.3522C107.989 14.5621 107.381 16.1768 107.381 18.1916V27.6403C107.381 29.6534 107.999 31.2656 109.233 32.4771C110.483 33.697 112.188 34.2969 114.378 34.2969H123.109C123.527 34.2921 123.934 34.1595 124.274 33.9169C124.46 33.7862 124.609 33.6106 124.708 33.4064C124.807 33.2023 124.853 32.9763 124.841 32.7496V32.2847C124.841 31.2523 124.259 30.7349 123.109 30.7349H114.378C112.306 30.7349 111.269 29.6775 111.266 27.5628V18.1916C111.266 16.1268 112.303 15.0945 114.378 15.0945H118.1C120.171 15.0945 121.206 16.1268 121.204 18.1916V21.2862H115.4C115.084 21.2868 114.781 21.4126 114.558 21.6361C114.334 21.8596 114.208 22.1625 114.208 22.4785Z" fill="#ED3C4E"/>
<path d="M157.772 34.2994C157.36 34.2816 156.959 34.1622 156.605 33.9519C156.392 33.8359 156.217 33.6605 156.102 33.447C155.987 33.2335 155.937 32.9912 155.957 32.7496V32.3647C155.952 32.1756 155.997 31.9886 156.087 31.8222L156.302 31.4348L166.673 15.0945H157.945C156.85 15.0945 156.302 14.5787 156.302 13.5472V13.0748C156.325 12.7091 156.462 12.3596 156.692 12.0749C156.942 11.7149 157.367 11.5325 157.942 11.5325H170.215C170.622 11.5342 171.017 11.6704 171.338 11.9199C171.512 12.0555 171.651 12.2315 171.742 12.4327C171.833 12.634 171.873 12.8543 171.86 13.0748V13.5397C171.86 14.0046 171.773 14.3146 171.61 14.4671L161.239 30.7299H170.488C170.718 30.719 170.947 30.7624 171.158 30.8566C171.368 30.9509 171.553 31.0933 171.698 31.2723C171.949 31.5481 172.1 31.9002 172.128 32.2722V32.7346C172.132 33.1386 171.978 33.5281 171.698 33.8195C171.541 33.9784 171.351 34.102 171.143 34.1822C170.934 34.2623 170.711 34.2972 170.488 34.2844L157.772 34.2994Z" fill="white"/>
<path d="M191.106 32.598C190.643 33.7861 190.226 34.7927 189.856 35.6176C189.577 36.264 189.242 36.8854 188.856 37.4748C187.357 39.7462 185.253 40.8818 182.547 40.8818H181.425C180.986 40.8717 180.556 40.7523 180.175 40.5344C179.745 40.3019 179.528 39.877 179.528 39.2571V38.7921C179.513 38.5664 179.558 38.3408 179.656 38.1372C179.755 37.9335 179.904 37.7588 180.09 37.6298C180.486 37.3651 180.954 37.2297 181.43 37.2423H182.552C183.762 37.2423 184.655 36.8257 185.232 35.9925C185.829 35.1235 186.323 34.1872 186.702 33.2029C185.548 30.4166 184.281 27.2679 182.9 23.7567C181.518 20.2455 180.191 16.8426 178.918 13.548C178.804 13.1336 178.835 12.6928 179.005 12.2982C179.178 11.7833 179.638 11.5233 180.387 11.5233H181.08C181.655 11.5233 182.058 11.6783 182.29 11.9883C182.517 12.2982 182.692 12.5307 182.807 12.6857L188.599 27.9336L192.236 18.4249L194.396 12.6957C194.571 12.3822 194.806 12.1062 195.088 11.8833C195.41 11.6393 195.807 11.5156 196.21 11.5333H196.815C197.623 11.5333 198.098 11.7833 198.243 12.3082C198.377 12.7103 198.421 13.1369 198.373 13.558L191.106 32.598Z" fill="white"/>
<path d="M147.317 12.9384C146.047 11.7286 144.346 11.122 142.215 11.1187H138.833C136.702 11.1187 135.001 11.7252 133.731 12.9384C132.461 14.1516 131.831 15.7647 131.839 17.7778V32.2583C131.824 32.6864 131.978 33.1032 132.269 33.4181C132.439 33.5829 132.643 33.7095 132.866 33.7897C133.09 33.8699 133.327 33.9017 133.564 33.8831H134.171C134.394 33.8967 134.618 33.8622 134.826 33.782C135.035 33.7018 135.224 33.5777 135.381 33.4181C135.672 33.1034 135.827 32.6867 135.813 32.2583V17.7778C135.813 15.713 136.82 14.6807 138.833 14.6807H142.215C144.235 14.6807 145.245 15.713 145.245 17.7778V32.2583C145.231 32.6867 145.386 33.1034 145.677 33.4181C145.834 33.5777 146.023 33.7018 146.231 33.782C146.44 33.8622 146.664 33.8967 146.887 33.8831H147.494C147.731 33.9017 147.968 33.8699 148.192 33.7897C148.415 33.7095 148.618 33.5829 148.789 33.4181C149.08 33.1034 149.236 32.6867 149.222 32.2583V17.7778C149.215 15.763 148.58 14.1499 147.317 12.9384Z" fill="white"/>
<path d="M220.616 12.9384C219.346 11.7286 217.646 11.122 215.514 11.1187H212.132C210.001 11.1187 208.3 11.7252 207.031 12.9384C205.761 14.1516 205.129 15.7647 205.136 17.7778V32.2583C205.122 32.6867 205.277 33.1034 205.568 33.4181C205.739 33.5829 205.943 33.7095 206.166 33.7897C206.389 33.8699 206.627 33.9017 206.863 33.8831H207.471C207.694 33.8967 207.917 33.8622 208.126 33.782C208.335 33.7018 208.524 33.5777 208.68 33.4181C208.971 33.1034 209.127 32.6867 209.113 32.2583V17.7778C209.113 15.713 210.119 14.6807 212.132 14.6807H215.514C217.526 14.6807 218.532 15.713 218.534 17.7778V32.2583C218.52 32.6867 218.675 33.1034 218.967 33.4181C219.123 33.5777 219.312 33.7018 219.521 33.782C219.73 33.8622 219.953 33.8967 220.176 33.8831H220.784C221.02 33.9017 221.258 33.8699 221.481 33.7897C221.704 33.7095 221.908 33.5829 222.079 33.4181C222.37 33.1034 222.525 32.6867 222.511 32.2583V17.7778C222.511 15.763 221.879 14.1499 220.616 12.9384Z" fill="white"/>
<path d="M38.0315 1.49932H16.1594C16.1594 1.49932 1.95883 1.05688 0.796486 15.28C0.746842 15.847 0.758576 16.4177 0.831481 16.9822C1.80135 24.1937 8.1205 30.7529 8.1205 30.7529H18.869L12.075 23.8238C12.075 23.8238 3.51612 16.2573 10.7651 9.99817C10.7651 9.99817 12.4124 8.68085 15.7645 8.48338H31.1149C31.1149 8.48338 31.0499 15.4674 25.3832 16.7198H16.9493L25.1207 24.9536C25.1207 24.9536 30.455 30.1579 26.3055 35.9522C23.6709 39.1142 18.7291 38.9817 18.7291 38.9817C18.7291 38.9817 26.833 43.3961 32.6972 37.4669C37.5115 32.5976 33.762 25.3486 33.762 25.3486C33.1459 24.0303 32.3611 22.7977 31.4273 21.6816C31.4273 21.6816 38.4639 17.9321 38.1139 7.18355C38.1464 5.3563 38.0315 1.49932 38.0315 1.49932Z" fill="url(#paint0_linear_551_4690)"/>
<path d="M18.8626 30.7536H8.1141C8.1141 30.7536 4.35461 26.8416 2.1899 21.7398C1.72996 18.2403 2.00493 13.9309 5.03952 10.8863C5.03952 10.8863 8.03911 7.63674 15.3706 8.47163L15.5906 8.49412C12.341 8.72659 10.7562 9.99392 10.7562 9.99392C3.51722 16.2581 12.0761 23.8245 12.0761 23.8245L18.8626 30.7536Z" fill="url(#paint1_linear_551_4690)"/>
<path d="M30.1917 39.3626C24.7674 42.2772 18.7307 38.9902 18.7307 38.9902C18.7307 38.9902 23.67 39.1201 26.3072 35.9581C29.4543 31.5637 27.1496 27.5117 25.8497 25.8044L25.8947 25.8369C25.8947 25.8369 31.7814 29.4315 32.5313 34.2908C32.8838 36.573 31.6265 38.2303 30.1917 39.3626Z" fill="url(#paint2_linear_551_4690)"/>
<defs>
<linearGradient id="paint0_linear_551_4690" x1="48.1076" y1="-5.53723" x2="17.7317" y2="22.6065" gradientUnits="userSpaceOnUse">
<stop stop-color="#7D61A9"/>
<stop offset="1" stop-color="#EE5969"/>
</linearGradient>
<linearGradient id="paint1_linear_551_4690" x1="22.5796" y1="34.3006" x2="7.4042" y2="13.7609" gradientUnits="userSpaceOnUse">
<stop stop-color="#753C96"/>
<stop offset="1" stop-color="#58499D"/>
</linearGradient>
<linearGradient id="paint2_linear_551_4690" x1="25.2873" y1="38.4127" x2="29.8817" y2="26.6193" gradientUnits="userSpaceOnUse">
<stop stop-color="#753C96"/>
<stop offset="1" stop-color="#58499D"/>
</linearGradient>
</defs>
</svg>
