<svg width="28" height="31" viewBox="0 0 28 31" fill="none" xmlns="http://www.w3.org/2000/svg">
<path opacity="0.78" fill-rule="evenodd" clip-rule="evenodd" d="M12.6299 9.80931C12.65 9.54881 12.8672 9.34766 13.1285 9.34766H13.5463C13.8032 9.34766 14.0183 9.5423 14.0438 9.7979L14.6655 16.0143L19.0802 18.537C19.236 18.626 19.3321 18.7917 19.3321 18.9712V19.3597C19.3321 19.6894 19.0186 19.9288 18.7006 19.8421L12.3974 18.123C12.1661 18.0599 12.0121 17.8414 12.0305 17.6023L12.6299 9.80931Z" fill="#FF9066"/>
<path opacity="0.901274" fill-rule="evenodd" clip-rule="evenodd" d="M6.72042 0.984587C6.45632 0.669838 5.94637 0.790308 5.85104 1.18997L4.21758 8.03811C4.1399 8.36376 4.39797 8.67226 4.73222 8.65332L11.777 8.2541C12.1879 8.23082 12.3963 7.74879 12.1317 7.43351L10.3304 5.28684C11.4956 4.88853 12.7312 4.68049 14 4.68049C20.2592 4.68049 25.3333 9.75459 25.3333 16.0138C25.3333 22.273 20.2592 27.3472 14 27.3472C7.74077 27.3472 2.66667 22.273 2.66667 16.0138C2.66667 14.9631 2.80896 13.9339 3.08641 12.9448L0.518845 12.2246C0.180793 13.4297 0 14.7007 0 16.0138C0 23.7458 6.26801 30.0138 14 30.0138C21.732 30.0138 28 23.7458 28 16.0138C28 8.28183 21.732 2.01382 14 2.01382C12.0547 2.01382 10.2021 2.41057 8.5186 3.12758L6.72042 0.984587Z" fill="#FF9066"/>
</svg>
