<svg width="16" height="17" viewBox="0 0 16 17" fill="none" xmlns="http://www.w3.org/2000/svg">
<path d="M13.5 4.5H11C11 3.70435 10.6839 2.94129 10.1213 2.37868C9.55871 1.81607 8.79565 1.5 8 1.5C7.20435 1.5 6.44129 1.81607 5.87868 2.37868C5.31607 2.94129 5 3.70435 5 4.5H2.5C2.23478 4.5 1.98043 4.60536 1.79289 4.79289C1.60536 4.98043 1.5 5.23478 1.5 5.5V13C1.5 13.2652 1.60536 13.5196 1.79289 13.7071C1.98043 13.8946 2.23478 14 2.5 14H13.5C13.7652 14 14.0196 13.8946 14.2071 13.7071C14.3946 13.5196 14.5 13.2652 14.5 13V5.5C14.5 5.23478 14.3946 4.98043 14.2071 4.79289C14.0196 4.60536 13.7652 4.5 13.5 4.5ZM8 2.5C8.53043 2.5 9.03914 2.71071 9.41421 3.08579C9.78929 3.46086 10 3.96957 10 4.5H6C6 3.96957 6.21071 3.46086 6.58579 3.08579C6.96086 2.71071 7.46957 2.5 8 2.5ZM13.5 13H2.5V5.5H13.5V13Z" fill="#272727"/>
</svg>
