<svg width="22" height="19" viewBox="0 0 22 19" fill="none" xmlns="http://www.w3.org/2000/svg">
<path fill-rule="evenodd" clip-rule="evenodd" d="M1.134 7.8557C0.568 7.5427 0.25 6.9947 0.25 6.4217C0.25 5.8477 0.568 5.2997 1.134 4.9877L9.448 0.392703C10.392 -0.128297 11.608 -0.128297 12.552 0.392703L20.866 4.9877C21.432 5.2997 21.75 5.8477 21.75 6.4217C21.75 6.9947 21.432 7.5427 20.866 7.8557L12.552 12.4497C11.608 12.9717 10.392 12.9717 9.448 12.4497L1.134 7.8557ZM1.859 6.5427L10.173 11.1367C10.676 11.4147 11.324 11.4147 11.827 11.1367L20.141 6.5427C20.196 6.5127 20.25 6.4767 20.25 6.4217C20.25 6.3657 20.196 6.3307 20.141 6.2997L11.827 1.7057C11.324 1.4277 10.676 1.4277 10.173 1.7057L1.859 6.2997C1.804 6.3307 1.75 6.3657 1.75 6.4217C1.75 6.4767 1.804 6.5127 1.859 6.5427Z" fill="black"/>
<path fill-rule="evenodd" clip-rule="evenodd" d="M17.25 8.75C17.25 8.336 17.586 8 18 8C18.414 8 18.75 8.336 18.75 8.75V13.25C18.75 15.321 17.071 17 15 17H7C4.929 17 3.25 15.321 3.25 13.25V8.75C3.25 8.336 3.586 8 4 8C4.414 8 4.75 8.336 4.75 8.75V13.25C4.75 14.493 5.757 15.5 7 15.5H15C16.243 15.5 17.25 14.493 17.25 13.25V8.75Z" fill="black"/>
<path fill-rule="evenodd" clip-rule="evenodd" d="M10.4698 7.27975C10.1767 6.98775 10.1767 6.51175 10.4698 6.21975C10.7618 5.92675 11.2377 5.92675 11.5297 6.21975L15.0298 9.71975C15.1708 9.85975 15.2498 10.0507 15.2498 10.2497V18.2498C15.2498 18.6637 14.9138 18.9998 14.4998 18.9998C14.0858 18.9998 13.7498 18.6637 13.7498 18.2498V10.5607L10.4698 7.27975Z" fill="black"/>
</svg>
