<svg width="22" height="22" viewBox="0 0 22 22" fill="none" xmlns="http://www.w3.org/2000/svg">
<path d="M4.53406 5.61035H2.67438C1.95938 5.61035 1.375 6.19816 1.375 6.91316V10.5672L4.53406 11.461V5.61035Z" fill="#858585"/>
<path d="M19.3245 5.61035H17.4648V11.461L20.6239 10.5672V6.91316C20.6239 6.19816 20.0395 5.61035 19.3245 5.61035Z" fill="#858585"/>
<path d="M9.47828 12.1485C9.47828 11.7979 9.76016 11.516 10.1108 11.516H11.8914C12.242 11.516 12.5239 11.7979 12.5239 12.1485V12.8635L16.7795 11.657V5.61039H15.1192V3.55133C15.1192 2.74352 14.4592 2.08008 13.6514 2.08008H8.35078C7.54297 2.08008 6.88297 2.74352 6.88297 3.55133V5.61039H5.22266V11.657L9.47828 12.8635V12.1485ZM8.54328 4.3282C8.54328 4.00852 8.80797 3.74383 9.12766 3.74383H12.8745C13.1942 3.74383 13.4589 4.00852 13.4589 4.3282V5.61039H8.54328V4.3282Z" fill="#858585"/>
<path d="M12.5228 13.8741C12.5228 14.1388 12.3853 14.3829 12.1619 14.5204L11.2887 15.06C11.11 15.1666 10.89 15.1666 10.7113 15.06L9.83813 14.5204C9.61469 14.3829 9.47719 14.1388 9.47719 13.8741V13.575L1.375 11.2822V18.6213C1.375 19.3363 1.95938 19.9207 2.67438 19.9207H19.3256C20.0406 19.9207 20.625 19.3363 20.625 18.6213V11.2822L12.5228 13.575V13.8741Z" fill="#858585"/>
</svg>
