<svg width="18" height="20" viewBox="0 0 18 20" fill="none" xmlns="http://www.w3.org/2000/svg">
<path d="M17.3253 8.55715L9.99197 1.49917C9.98838 1.49598 9.98501 1.49254 9.98189 1.48888C9.71189 1.23841 9.36005 1.09961 8.99509 1.09961C8.63014 1.09961 8.2783 1.23841 8.0083 1.48888L7.99822 1.49917L0.673135 8.55715C0.523717 8.69731 0.404446 8.86758 0.322869 9.05718C0.241293 9.24679 0.199188 9.45161 0.199219 9.65867V18.3035C0.199219 18.7003 0.353742 19.0808 0.628795 19.3614C0.903849 19.642 1.2769 19.7996 1.66589 19.7996H6.06589C6.45487 19.7996 6.82792 19.642 7.10298 19.3614C7.37803 19.0808 7.53255 18.7003 7.53255 18.3035V13.8151H10.4659V18.3035C10.4659 18.7003 10.6204 19.0808 10.8955 19.3614C11.1705 19.642 11.5436 19.7996 11.9326 19.7996H16.3326C16.7215 19.7996 17.0946 19.642 17.3696 19.3614C17.6447 19.0808 17.7992 18.7003 17.7992 18.3035V9.65867C17.7992 9.45161 17.7571 9.24679 17.6756 9.05718C17.594 8.86758 17.4747 8.69731 17.3253 8.55715ZM16.3326 18.3035H11.9326V13.8151C11.9326 13.4183 11.778 13.0378 11.503 12.7572C11.2279 12.4766 10.8549 12.319 10.4659 12.319H7.53255C7.14357 12.319 6.77052 12.4766 6.49546 12.7572C6.22041 13.0378 6.06589 13.4183 6.06589 13.8151V18.3035H1.66589V9.65867L1.67597 9.64932L8.99922 2.59415L16.3234 9.64745L16.3335 9.6568L16.3326 18.3035Z" fill="#ED3C4E" stroke="#ED3C4E" stroke-width="0.4"/>
</svg>
