<svg width="18" height="19" viewBox="0 0 18 19" fill="none" xmlns="http://www.w3.org/2000/svg">
<path d="M15.875 1.75H13.8125V1.0625C13.8125 0.880164 13.7401 0.705295 13.6111 0.576364C13.4822 0.447433 13.3073 0.375 13.125 0.375C12.9427 0.375 12.7678 0.447433 12.6389 0.576364C12.5099 0.705295 12.4375 0.880164 12.4375 1.0625V1.75H5.5625V1.0625C5.5625 0.880164 5.49007 0.705295 5.36114 0.576364C5.2322 0.447433 5.05734 0.375 4.875 0.375C4.69266 0.375 4.5178 0.447433 4.38886 0.576364C4.25993 0.705295 4.1875 0.880164 4.1875 1.0625V1.75H2.125C1.76033 1.75 1.41059 1.89487 1.15273 2.15273C0.894866 2.41059 0.75 2.76033 0.75 3.125V16.875C0.75 17.2397 0.894866 17.5894 1.15273 17.8473C1.41059 18.1051 1.76033 18.25 2.125 18.25H15.875C16.2397 18.25 16.5894 18.1051 16.8473 17.8473C17.1051 17.5894 17.25 17.2397 17.25 16.875V3.125C17.25 2.76033 17.1051 2.41059 16.8473 2.15273C16.5894 1.89487 16.2397 1.75 15.875 1.75ZM4.1875 3.125V3.8125C4.1875 3.99484 4.25993 4.1697 4.38886 4.29864C4.5178 4.42757 4.69266 4.5 4.875 4.5C5.05734 4.5 5.2322 4.42757 5.36114 4.29864C5.49007 4.1697 5.5625 3.99484 5.5625 3.8125V3.125H12.4375V3.8125C12.4375 3.99484 12.5099 4.1697 12.6389 4.29864C12.7678 4.42757 12.9427 4.5 13.125 4.5C13.3073 4.5 13.4822 4.42757 13.6111 4.29864C13.7401 4.1697 13.8125 3.99484 13.8125 3.8125V3.125H15.875V5.875H2.125V3.125H4.1875ZM15.875 16.875H2.125V7.25H15.875V16.875ZM10.0312 10.3438C10.0312 10.5477 9.97077 10.7471 9.85745 10.9167C9.74414 11.0863 9.58308 11.2184 9.39464 11.2965C9.20621 11.3746 8.99886 11.395 8.79881 11.3552C8.59877 11.3154 8.41502 11.2172 8.2708 11.073C8.12657 10.9287 8.02836 10.745 7.98856 10.5449C7.94877 10.3449 7.9692 10.1375 8.04725 9.94911C8.1253 9.76067 8.25748 9.59961 8.42707 9.4863C8.59666 9.37298 8.79604 9.3125 9 9.3125C9.2735 9.3125 9.53581 9.42115 9.7292 9.61455C9.9226 9.80794 10.0312 10.0702 10.0312 10.3438ZM13.8125 10.3438C13.8125 10.5477 13.752 10.7471 13.6387 10.9167C13.5254 11.0863 13.3643 11.2184 13.1759 11.2965C12.9875 11.3746 12.7801 11.395 12.5801 11.3552C12.38 11.3154 12.1963 11.2172 12.052 11.073C11.9078 10.9287 11.8096 10.745 11.7698 10.5449C11.73 10.3449 11.7504 10.1375 11.8285 9.94911C11.9066 9.76067 12.0387 9.59961 12.2083 9.4863C12.3779 9.37298 12.5773 9.3125 12.7812 9.3125C13.0548 9.3125 13.3171 9.42115 13.5105 9.61455C13.7038 9.80794 13.8125 10.0702 13.8125 10.3438ZM6.25 13.7812C6.25 13.9852 6.18952 14.1846 6.0762 14.3542C5.96289 14.5238 5.80183 14.6559 5.61339 14.734C5.42496 14.8121 5.21761 14.8325 5.01756 14.7927C4.81752 14.7529 4.63377 14.6547 4.48955 14.5105C4.34532 14.3662 4.24711 14.1825 4.20731 13.9824C4.16752 13.7824 4.18795 13.575 4.266 13.3866C4.34405 13.1982 4.47623 13.0371 4.64582 12.9238C4.81541 12.8105 5.01479 12.75 5.21875 12.75C5.49225 12.75 5.75456 12.8587 5.94795 13.052C6.14135 13.2454 6.25 13.5077 6.25 13.7812ZM10.0312 13.7812C10.0312 13.9852 9.97077 14.1846 9.85745 14.3542C9.74414 14.5238 9.58308 14.6559 9.39464 14.734C9.20621 14.8121 8.99886 14.8325 8.79881 14.7927C8.59877 14.7529 8.41502 14.6547 8.2708 14.5105C8.12657 14.3662 8.02836 14.1825 7.98856 13.9824C7.94877 13.7824 7.9692 13.575 8.04725 13.3866C8.1253 13.1982 8.25748 13.0371 8.42707 12.9238C8.59666 12.8105 8.79604 12.75 9 12.75C9.2735 12.75 9.53581 12.8587 9.7292 13.052C9.9226 13.2454 10.0312 13.5077 10.0312 13.7812ZM13.8125 13.7812C13.8125 13.9852 13.752 14.1846 13.6387 14.3542C13.5254 14.5238 13.3643 14.6559 13.1759 14.734C12.9875 14.8121 12.7801 14.8325 12.5801 14.7927C12.38 14.7529 12.1963 14.6547 12.052 14.5105C11.9078 14.3662 11.8096 14.1825 11.7698 13.9824C11.73 13.7824 11.7504 13.575 11.8285 13.3866C11.9066 13.1982 12.0387 13.0371 12.2083 12.9238C12.3779 12.8105 12.5773 12.75 12.7812 12.75C13.0548 12.75 13.3171 12.8587 13.5105 13.052C13.7038 13.2454 13.8125 13.5077 13.8125 13.7812Z" fill="#9B9B9B"/>
</svg>
