<svg width="18" height="17" viewBox="0 0 18 17" fill="none" xmlns="http://www.w3.org/2000/svg">
<path d="M16.5625 2.8125H13.125V2.125C13.125 1.57799 12.9077 1.05339 12.5209 0.666592C12.1341 0.279799 11.6095 0.0625 11.0625 0.0625H6.9375C6.39049 0.0625 5.86589 0.279799 5.47909 0.666592C5.0923 1.05339 4.875 1.57799 4.875 2.125V2.8125H1.4375C1.07283 2.8125 0.723091 2.95737 0.465228 3.21523C0.207366 3.47309 0.0625 3.82283 0.0625 4.1875V15.1875C0.0625 15.5522 0.207366 15.9019 0.465228 16.1598C0.723091 16.4176 1.07283 16.5625 1.4375 16.5625H16.5625C16.9272 16.5625 17.2769 16.4176 17.5348 16.1598C17.7926 15.9019 17.9375 15.5522 17.9375 15.1875V4.1875C17.9375 3.82283 17.7926 3.47309 17.5348 3.21523C17.2769 2.95737 16.9272 2.8125 16.5625 2.8125ZM6.25 2.125C6.25 1.94266 6.32243 1.7678 6.45136 1.63886C6.5803 1.50993 6.75516 1.4375 6.9375 1.4375H11.0625C11.2448 1.4375 11.4197 1.50993 11.5486 1.63886C11.6776 1.7678 11.75 1.94266 11.75 2.125V2.8125H6.25V2.125ZM16.5625 4.1875V7.76336C14.242 9.02645 11.642 9.68797 9 9.6875C6.35811 9.68798 3.75818 9.02677 1.4375 7.76422V4.1875H16.5625ZM16.5625 15.1875H1.4375V9.31281C3.79212 10.4645 6.37879 11.063 9 11.0625C11.6213 11.0626 14.2079 10.4638 16.5625 9.31195V15.1875ZM6.9375 7.625C6.9375 7.44266 7.00993 7.2678 7.13886 7.13886C7.2678 7.00993 7.44266 6.9375 7.625 6.9375H10.375C10.5573 6.9375 10.7322 7.00993 10.8611 7.13886C10.9901 7.2678 11.0625 7.44266 11.0625 7.625C11.0625 7.80734 10.9901 7.9822 10.8611 8.11114C10.7322 8.24007 10.5573 8.3125 10.375 8.3125H7.625C7.44266 8.3125 7.2678 8.24007 7.13886 8.11114C7.00993 7.9822 6.9375 7.80734 6.9375 7.625Z" fill="#9B9B9B"/>
</svg>
