<svg width="16" height="17" viewBox="0 0 16 17" fill="none" xmlns="http://www.w3.org/2000/svg">
<path fill-rule="evenodd" clip-rule="evenodd" d="M4.83203 7.16667C4.83203 6.32681 5.16566 5.52136 5.75953 4.9275C6.35339 4.33363 7.15885 4 7.9987 4C8.83855 4 9.644 4.33363 10.2379 4.9275C10.8317 5.52136 11.1654 6.32681 11.1654 7.16667C11.1654 8.00652 10.8317 8.81197 10.2379 9.40584C9.644 9.9997 8.83855 10.3333 7.9987 10.3333C7.15885 10.3333 6.35339 9.9997 5.75953 9.40584C5.16566 8.81197 4.83203 8.00652 4.83203 7.16667ZM7.9987 5C7.42406 5 6.87296 5.22827 6.46663 5.6346C6.0603 6.04093 5.83203 6.59203 5.83203 7.16667C5.83203 7.7413 6.0603 8.2924 6.46663 8.69873C6.87296 9.10506 7.42406 9.33333 7.9987 9.33333C8.57333 9.33333 9.12443 9.10506 9.53076 8.69873C9.93709 8.2924 10.1654 7.7413 10.1654 7.16667C10.1654 6.59203 9.93709 6.04093 9.53076 5.6346C9.12443 5.22827 8.57333 5 7.9987 5Z" fill="#272727"/>
<path fill-rule="evenodd" clip-rule="evenodd" d="M2.34828 6.40434C2.46223 5.02221 3.09177 3.73347 4.11189 2.79399C5.13202 1.85451 6.46813 1.333 7.85495 1.33301H8.14295C9.52977 1.333 10.8659 1.85451 11.886 2.79399C12.9061 3.73347 13.5357 5.02221 13.6496 6.40434C13.7764 7.94386 13.3008 9.47252 12.3229 10.6683L9.12761 14.5757C8.99087 14.7429 8.81867 14.8776 8.62348 14.9702C8.42828 15.0627 8.21496 15.1107 7.99895 15.1107C7.78293 15.1107 7.56961 15.0627 7.37442 14.9702C7.17922 14.8776 7.00703 14.7429 6.87028 14.5757L3.67495 10.6683C2.69703 9.47255 2.22141 7.94387 2.34828 6.40434ZM7.85495 2.33301C6.71927 2.33318 5.62517 2.76036 4.78983 3.52975C3.95449 4.29915 3.43897 5.35451 3.34562 6.48634C3.24002 7.76758 3.63581 9.0398 4.44962 10.035L7.64495 13.943C7.6879 13.9956 7.74201 14.0379 7.80335 14.067C7.86469 14.0961 7.93173 14.1112 7.99962 14.1112C8.0675 14.1112 8.13454 14.0961 8.19588 14.067C8.25722 14.0379 8.31133 13.9956 8.35428 13.943L11.5496 10.035C12.3629 9.0396 12.7583 7.7674 12.6523 6.48634C12.5589 5.35439 12.0433 4.29894 11.2078 3.52953C10.3723 2.76012 9.27808 2.33301 8.14228 2.33301H7.85495Z" fill="#272727"/>
</svg>
