<svg width="22" height="14" viewBox="0 0 22 14" fill="none" xmlns="http://www.w3.org/2000/svg">
<path d="M10.0774 9.57139C10.9988 8.95796 11.6984 8.06429 12.0726 7.02253C12.4469 5.98077 12.4759 4.84623 12.1555 3.78668C11.835 2.72713 11.1821 1.79883 10.2933 1.13905C9.40448 0.479275 8.32692 0.123047 7.21998 0.123047C6.11304 0.123047 5.03549 0.479275 4.14666 1.13905C3.25784 1.79883 2.60493 2.72713 2.2845 3.78668C1.96406 4.84623 1.99311 5.98077 2.36735 7.02253C2.74158 8.06429 3.44114 8.95796 4.36256 9.57139C2.6958 10.1857 1.27234 11.3225 0.304592 12.8121C0.253731 12.8877 0.218402 12.9726 0.20066 13.062C0.182919 13.1514 0.183117 13.2434 0.201245 13.3327C0.219372 13.422 0.255067 13.5067 0.306255 13.5821C0.357442 13.6575 0.423101 13.7219 0.499415 13.7717C0.575728 13.8215 0.661175 13.8556 0.750787 13.8721C0.840399 13.8885 0.932389 13.887 1.02141 13.8676C1.11043 13.8482 1.19471 13.8113 1.26934 13.759C1.34398 13.7068 1.40748 13.6402 1.45615 13.5632C2.0804 12.6031 2.93459 11.8141 3.94116 11.2679C4.94772 10.7218 6.07478 10.4357 7.21998 10.4357C8.36518 10.4357 9.49224 10.7218 10.4988 11.2679C11.5054 11.8141 12.3596 12.6031 12.9838 13.5632C13.0846 13.7131 13.2404 13.8172 13.4174 13.8532C13.5945 13.8891 13.7785 13.8539 13.9298 13.7552C14.0811 13.6566 14.1875 13.5023 14.2259 13.3258C14.2644 13.1493 14.2319 12.9648 14.1354 12.8121C13.1676 11.3225 11.7442 10.1857 10.0774 9.57139ZM3.43873 5.28139C3.43873 4.53353 3.6605 3.80246 4.07599 3.18064C4.49148 2.55882 5.08203 2.07416 5.77296 1.78797C6.46389 1.50178 7.22418 1.42689 7.95767 1.5728C8.69116 1.7187 9.36491 2.07882 9.89373 2.60764C10.4225 3.13646 10.7827 3.81021 10.9286 4.5437C11.0745 5.27719 10.9996 6.03748 10.7134 6.72841C10.4272 7.41934 9.94256 8.00989 9.32073 8.42538C8.69891 8.84087 7.96784 9.06264 7.21998 9.06264C6.21748 9.0615 5.25637 8.66276 4.54749 7.95388C3.83862 7.24501 3.43987 6.28389 3.43873 5.28139ZM21.4976 13.7634C21.3449 13.863 21.1589 13.8979 20.9805 13.8603C20.8021 13.8228 20.6459 13.7159 20.5463 13.5632C19.9228 12.6025 19.0687 11.8132 18.062 11.2673C17.0552 10.7213 15.9278 10.4361 14.7825 10.4376C14.6001 10.4376 14.4253 10.3652 14.2963 10.2363C14.1674 10.1073 14.095 9.93248 14.095 9.75014C14.095 9.5678 14.1674 9.39293 14.2963 9.264C14.4253 9.13507 14.6001 9.06264 14.7825 9.06264C15.3393 9.06211 15.8892 8.93861 16.3928 8.70094C16.8964 8.46327 17.3412 8.11732 17.6956 7.68779C18.05 7.25826 18.3051 6.75576 18.4428 6.2162C18.5805 5.67663 18.5973 5.11332 18.492 4.56652C18.3867 4.01971 18.162 3.5029 17.8338 3.05303C17.5056 2.60315 17.0822 2.2313 16.5936 1.96406C16.1051 1.69681 15.5636 1.54077 15.0077 1.50707C14.4519 1.47337 13.8955 1.56285 13.3783 1.76912C13.2939 1.80558 13.2031 1.82476 13.1113 1.82554C13.0194 1.82632 12.9283 1.80867 12.8434 1.77364C12.7584 1.73862 12.6814 1.68692 12.6168 1.62161C12.5521 1.5563 12.5013 1.4787 12.4671 1.3934C12.433 1.30809 12.4163 1.21681 12.4181 1.12495C12.4198 1.03309 12.44 0.942516 12.4773 0.858574C12.5147 0.774633 12.5685 0.699029 12.6355 0.636231C12.7026 0.573432 12.7816 0.524713 12.8678 0.492951C14.0516 0.0208547 15.3682 0.0038659 16.5637 0.445262C17.7593 0.886658 18.749 1.75516 19.342 2.88323C19.935 4.0113 20.0892 5.319 19.7748 6.55405C19.4605 7.78911 18.7 8.86401 17.6399 9.57139C19.3067 10.1857 20.7301 11.3225 21.6979 12.8121C21.7975 12.9648 21.8323 13.1508 21.7948 13.3292C21.7572 13.5076 21.6503 13.6638 21.4976 13.7634Z" fill="#9B9B9B"/>
</svg>
