<svg width="18" height="18" viewBox="0 0 18 18" fill="none" xmlns="http://www.w3.org/2000/svg">
<path d="M17.8455 16.2191C16.5367 13.9564 14.5197 12.3339 12.1659 11.5648C13.3302 10.8716 14.2348 9.81548 14.7408 8.55849C15.2467 7.3015 15.3261 5.91317 14.9666 4.60671C14.6072 3.30025 13.8288 2.14789 12.7511 1.32662C11.6734 0.505339 10.3558 0.0605469 9.00081 0.0605469C7.64581 0.0605469 6.32827 0.505339 5.25052 1.32662C4.17278 2.14789 3.39442 3.30025 3.03498 4.60671C2.67554 5.91317 2.7549 7.3015 3.26086 8.55849C3.76683 9.81548 4.67142 10.8716 5.83573 11.5648C3.48191 12.333 1.46495 13.9555 0.156125 16.2191C0.108128 16.2974 0.0762919 16.3845 0.0624951 16.4752C0.0486983 16.566 0.0532203 16.6586 0.0757943 16.7476C0.0983683 16.8366 0.138537 16.9202 0.193931 16.9934C0.249324 17.0666 0.31882 17.128 0.398318 17.1739C0.477817 17.2198 0.565707 17.2493 0.656804 17.2607C0.7479 17.2721 0.840358 17.2652 0.928721 17.2403C1.01709 17.2154 1.09956 17.173 1.17129 17.1157C1.24302 17.0584 1.30255 16.9873 1.34636 16.9066C2.96542 14.1085 5.82714 12.4379 9.00081 12.4379C12.1745 12.4379 15.0362 14.1085 16.6553 16.9066C16.6991 16.9873 16.7586 17.0584 16.8303 17.1157C16.9021 17.173 16.9845 17.2154 17.0729 17.2403C17.1613 17.2652 17.2537 17.2721 17.3448 17.2607C17.4359 17.2493 17.5238 17.2198 17.6033 17.1739C17.6828 17.128 17.7523 17.0666 17.8077 16.9934C17.8631 16.9202 17.9033 16.8366 17.9258 16.7476C17.9484 16.6586 17.9529 16.566 17.9391 16.4752C17.9253 16.3845 17.8935 16.2974 17.8455 16.2191ZM4.18831 6.25038C4.18831 5.29856 4.47056 4.36811 4.99936 3.5767C5.52817 2.78529 6.27978 2.16846 7.15915 1.80421C8.03852 1.43997 9.00615 1.34466 9.93968 1.53036C10.8732 1.71605 11.7307 2.17439 12.4038 2.84743C13.0768 3.52047 13.5352 4.37798 13.7208 5.31151C13.9065 6.24505 13.8112 7.21268 13.447 8.09205C13.0827 8.97142 12.4659 9.72303 11.6745 10.2518C10.8831 10.7806 9.95263 11.0629 9.00081 11.0629C7.72488 11.0615 6.50159 10.5541 5.59937 9.65183C4.69715 8.74961 4.18968 7.52632 4.18831 6.25038Z" fill="#9B9B9B"/>
</svg>
