<svg width="30" height="34" viewBox="0 0 30 34" fill="none" xmlns="http://www.w3.org/2000/svg">
<path fill-rule="evenodd" clip-rule="evenodd" d="M0 11.3162L12.9005 18.7643C13.0394 18.8445 13.1851 18.9024 13.3333 18.9392V33.3844L0.920065 26.0382C0.349784 25.7007 0 25.0873 0 24.4246V11.3162ZM30.0013 11.1182V24.4246C30.0013 25.0873 29.6515 25.7007 29.0812 26.0382L16.668 33.3844V18.8126C16.6982 18.7975 16.7282 18.7814 16.7579 18.7643L30.0013 11.1182Z" fill="#FEC53D"/>
<path opacity="0.499209" fill-rule="evenodd" clip-rule="evenodd" d="M0.40625 7.70142C0.563825 7.50244 0.762713 7.33426 0.994592 7.21076L14.1196 0.2201C14.6706 -0.0733665 15.3315 -0.0733665 15.8825 0.2201L29.0075 7.21076C29.1862 7.30596 29.3454 7.42771 29.4811 7.56966L15.0909 15.8778C14.9963 15.9325 14.9091 15.995 14.8296 16.064C14.75 15.995 14.6628 15.9325 14.5682 15.8778L0.40625 7.70142Z" fill="#FEC53D"/>
</svg>
