<svg width="18" height="16" viewBox="0 0 18 16" fill="none" xmlns="http://www.w3.org/2000/svg">
<path d="M16.5625 0.4375H1.4375C1.07283 0.4375 0.723091 0.582366 0.465228 0.840228C0.207366 1.09809 0.0625 1.44783 0.0625 1.8125V14.1875C0.0625 14.5522 0.207366 14.9019 0.465228 15.1598C0.723091 15.4176 1.07283 15.5625 1.4375 15.5625H2.5882C2.71832 15.5625 2.84577 15.5257 2.95576 15.4561C3.06575 15.3866 3.15374 15.2873 3.20953 15.1698C3.54384 14.4639 4.07167 13.8675 4.73161 13.4499C5.39155 13.0322 6.1565 12.8105 6.9375 12.8105C7.7185 12.8105 8.48345 13.0322 9.14339 13.4499C9.80334 13.8675 10.3312 14.4639 10.6655 15.1698C10.7213 15.2873 10.8093 15.3866 10.9192 15.4561C11.0292 15.5257 11.1567 15.5625 11.2868 15.5625H16.5625C16.9272 15.5625 17.2769 15.4176 17.5348 15.1598C17.7926 14.9019 17.9375 14.5522 17.9375 14.1875V1.8125C17.9375 1.44783 17.7926 1.09809 17.5348 0.840228C17.2769 0.582366 16.9272 0.4375 16.5625 0.4375ZM4.875 9.375C4.875 8.96708 4.99596 8.56831 5.22259 8.22914C5.44922 7.88996 5.77134 7.6256 6.14822 7.4695C6.52509 7.31339 6.93979 7.27255 7.33987 7.35213C7.73996 7.43171 8.10746 7.62815 8.39591 7.91659C8.68435 8.20504 8.88079 8.57254 8.96037 8.97263C9.03995 9.37271 8.99911 9.78741 8.843 10.1643C8.6869 10.5412 8.42254 10.8633 8.08336 11.0899C7.74419 11.3165 7.34542 11.4375 6.9375 11.4375C6.39049 11.4375 5.86589 11.2202 5.47909 10.8334C5.0923 10.4466 4.875 9.92201 4.875 9.375ZM16.5625 14.1875H11.701C11.1269 13.2004 10.2615 12.4152 9.22344 11.9394C9.74386 11.476 10.1112 10.8654 10.2767 10.1885C10.4421 9.51156 10.398 8.80035 10.1501 8.14911C9.90217 7.49787 9.46218 6.93736 8.88845 6.54187C8.31471 6.14638 7.63433 5.9346 6.9375 5.9346C6.24067 5.9346 5.56029 6.14638 4.98655 6.54187C4.41282 6.93736 3.97283 7.49787 3.72491 8.14911C3.477 8.80035 3.43286 9.51156 3.59834 10.1885C3.76383 10.8654 4.13114 11.476 4.65156 11.9394C3.61353 12.4152 2.7481 13.2004 2.17398 14.1875H1.4375V1.8125H16.5625V14.1875ZM2.8125 5.25V3.875C2.8125 3.69266 2.88493 3.5178 3.01386 3.38886C3.1428 3.25993 3.31766 3.1875 3.5 3.1875H14.5C14.6823 3.1875 14.8572 3.25993 14.9861 3.38886C15.1151 3.5178 15.1875 3.69266 15.1875 3.875V12.125C15.1875 12.3073 15.1151 12.4822 14.9861 12.6111C14.8572 12.7401 14.6823 12.8125 14.5 12.8125H13.125C12.9427 12.8125 12.7678 12.7401 12.6389 12.6111C12.5099 12.4822 12.4375 12.3073 12.4375 12.125C12.4375 11.9427 12.5099 11.7678 12.6389 11.6389C12.7678 11.5099 12.9427 11.4375 13.125 11.4375H13.8125V4.5625H4.1875V5.25C4.1875 5.43234 4.11507 5.6072 3.98614 5.73614C3.8572 5.86507 3.68234 5.9375 3.5 5.9375C3.31766 5.9375 3.1428 5.86507 3.01386 5.73614C2.88493 5.6072 2.8125 5.43234 2.8125 5.25Z" fill="#9B9B9B"/>
</svg>
